<svg xmlns="http://www.w3.org/2000/svg" width="1020" height="660" viewBox="0 0 1020 660" font-family="'Segoe UI', Arial, sans-serif">
  <defs>
    <marker id="arrowBlue" markerWidth="9" markerHeight="9" refX="7" refY="3" orient="auto">
      <path d="M0,0 L0,6 L9,3 z" fill="#64b5f6"/>
    </marker>
    <marker id="arrowGreen" markerWidth="9" markerHeight="9" refX="7" refY="3" orient="auto">
      <path d="M0,0 L0,6 L9,3 z" fill="#81c784"/>
    </marker>
    <marker id="arrowOrange" markerWidth="9" markerHeight="9" refX="7" refY="3" orient="auto">
      <path d="M0,0 L0,6 L9,3 z" fill="#ffb74d"/>
    </marker>
    <linearGradient id="bgGrad" x1="0%" y1="0%" x2="0%" y2="100%">
      <stop offset="0%" style="stop-color:#0d1117;stop-opacity:1"/>
      <stop offset="100%" style="stop-color:#161b22;stop-opacity:1"/>
    </linearGradient>
    <linearGradient id="card1" x1="0%" y1="0%" x2="100%" y2="100%">
      <stop offset="0%" style="stop-color:#1c2333;stop-opacity:1"/>
      <stop offset="100%" style="stop-color:#21262d;stop-opacity:1"/>
    </linearGradient>
    <filter id="shadow">
      <feDropShadow dx="0" dy="2" stdDeviation="4" flood-color="#000" flood-opacity="0.5"/>
    </filter>
  </defs>

  <!-- Background -->
  <rect width="1020" height="660" fill="url(#bgGrad)"/>

  <!-- Title -->
  <text x="510" y="38" text-anchor="middle" font-size="22" font-weight="bold" fill="#e6edf3" letter-spacing="0.5">ESP32 6-DOF Robot Arm — Control Architectures</text>
  <line x1="80" y1="48" x2="940" y2="48" stroke="#30363d" stroke-width="1"/>

  <!-- ══════════════════════════════════════════════════════════ -->
  <!-- ARCH 1: CLOUD RELAY -->
  <!-- ══════════════════════════════════════════════════════════ -->
  <text x="20" y="72" font-size="12" font-weight="bold" fill="#7ec8e3" letter-spacing="1">ARCH 1 — CLOUD-RELAY CLIENT</text>
  <text x="20" y="88" font-size="10" fill="#484f58">esp32_cloud_client.ino · WiFi STA · roboclaw-production.up.railway.app:443</text>

  <!-- Panel background -->
  <rect x="14" y="95" width="992" height="238" rx="10" fill="#161b22" stroke="#21262d" stroke-width="1.5" filter="url(#shadow)"/>

  <!-- ── CLIENTS box ── -->
  <rect x="28" y="110" width="155" height="208" rx="8" fill="#1c2333" stroke="#30363d" stroke-width="1.2"/>
  <text x="106" y="131" text-anchor="middle" font-size="10" fill="#8b949e" font-weight="bold" letter-spacing="1">CLIENTS</text>

  <!-- Openclaw Agent -->
  <rect x="40" y="140" width="131" height="46" rx="6" fill="#2d1f4e" stroke="#7c3aed" stroke-width="1.5"/>
  <rect x="40" y="140" width="131" height="14" rx="6" fill="#3d2470"/>
  <rect x="40" y="147" width="131" height="7" fill="#3d2470"/>
  <text x="106" y="152" text-anchor="middle" font-size="10" fill="#c4b5fd" font-weight="bold">Openclaw Agent</text>
  <text x="106" y="167" text-anchor="middle" font-size="9" fill="#a78bfa">REST API  /  JSON</text>
  <text x="106" y="180" text-anchor="middle" font-size="8" fill="#7c3aed">LLM-powered</text>

  <!-- Web Browser -->
  <rect x="40" y="194" width="131" height="40" rx="6" fill="#0e2a4a" stroke="#1d4ed8" stroke-width="1.2"/>
  <text x="106" y="210" text-anchor="middle" font-size="10" fill="#93c5fd" font-weight="bold">Web Browser</text>
  <text x="106" y="225" text-anchor="middle" font-size="9" fill="#60a5fa">Control Panel UI</text>

  <!-- Discord Bot -->
  <rect x="40" y="242" width="131" height="40" rx="6" fill="#1e1f3a" stroke="#5865f2" stroke-width="1.2"/>
  <text x="106" y="258" text-anchor="middle" font-size="10" fill="#a5b4fc" font-weight="bold">Discord Bot</text>
  <text x="106" y="273" text-anchor="middle" font-size="9" fill="#818cf8">Chat Commands</text>

  <!-- Arrow: clients → cloud -->
  <line x1="184" y1="213" x2="235" y2="213" stroke="#64b5f6" stroke-width="1.8" marker-end="url(#arrowBlue)"/>
  <text x="209" y="207" text-anchor="middle" font-size="8" fill="#8b949e">HTTPS/WSS</text>

  <!-- ── CLOUD RELAY SERVER ── -->
  <rect x="238" y="110" width="178" height="208" rx="8" fill="#1c2333" stroke="#30363d" stroke-width="1.2"/>
  <text x="327" y="131" text-anchor="middle" font-size="10" fill="#8b949e" font-weight="bold" letter-spacing="1">CLOUD RELAY</text>
  <text x="327" y="146" text-anchor="middle" font-size="9" fill="#58a6ff">Railway / Render</text>

  <rect x="251" y="155" width="152" height="26" rx="5" fill="#0e1f3a" stroke="#1d4ed8" stroke-width="1"/>
  <text x="327" y="172" text-anchor="middle" font-size="9" fill="#7dd3fc">REST API Bridge</text>

  <rect x="251" y="187" width="152" height="26" rx="5" fill="#0e1f3a" stroke="#1d4ed8" stroke-width="1"/>
  <text x="327" y="204" text-anchor="middle" font-size="9" fill="#7dd3fc">WebSocket Router</text>

  <rect x="251" y="219" width="152" height="26" rx="5" fill="#0e1f3a" stroke="#1d4ed8" stroke-width="1"/>
  <text x="327" y="236" text-anchor="middle" font-size="9" fill="#7dd3fc">Session Manager</text>

  <rect x="251" y="251" width="152" height="26" rx="5" fill="#0e1f3a" stroke="#1d4ed8" stroke-width="1"/>
  <text x="327" y="268" text-anchor="middle" font-size="9" fill="#7dd3fc">SSL/TLS Termination</text>

  <!-- Arrow: cloud → ESP32 -->
  <line x1="417" y1="213" x2="466" y2="213" stroke="#64b5f6" stroke-width="1.8" marker-end="url(#arrowBlue)"/>
  <text x="441" y="207" text-anchor="middle" font-size="8" fill="#8b949e">WSS :443</text>

  <!-- ── ESP32 CLOUD ── -->
  <rect x="469" y="110" width="195" height="208" rx="8" fill="#1c2333" stroke="#30363d" stroke-width="1.2"/>
  <text x="566" y="131" text-anchor="middle" font-size="10" fill="#8b949e" font-weight="bold" letter-spacing="1">ESP32  (STA MODE)</text>
  <text x="566" y="146" text-anchor="middle" font-size="9" fill="#3fb950">WiFi Client</text>

  <rect x="482" y="155" width="169" height="26" rx="5" fill="#0f2a1a" stroke="#238636" stroke-width="1"/>
  <text x="566" y="172" text-anchor="middle" font-size="9" fill="#56d364">IK Solver (x, y, z, pitch)</text>

  <rect x="482" y="187" width="169" height="26" rx="5" fill="#0f2a1a" stroke="#238636" stroke-width="1"/>
  <text x="566" y="204" text-anchor="middle" font-size="9" fill="#56d364">Motion Interpolator</text>

  <rect x="482" y="219" width="169" height="26" rx="5" fill="#0f2a1a" stroke="#238636" stroke-width="1"/>
  <text x="566" y="236" text-anchor="middle" font-size="9" fill="#56d364">State Broadcaster</text>

  <rect x="482" y="251" width="169" height="26" rx="5" fill="#0f2a1a" stroke="#238636" stroke-width="1"/>
  <text x="566" y="268" text-anchor="middle" font-size="9" fill="#56d364">WebSocket Client (WS lib)</text>

  <!-- Arrow: ESP32 → PCA9685 -->
  <line x1="665" y1="213" x2="714" y2="213" stroke="#ffb74d" stroke-width="1.8" marker-end="url(#arrowOrange)"/>
  <text x="689" y="207" text-anchor="middle" font-size="8" fill="#8b949e">I²C</text>

  <!-- ── PCA9685 + SERVOS ── -->
  <rect x="717" y="110" width="276" height="208" rx="8" fill="#1c2333" stroke="#30363d" stroke-width="1.2"/>
  <text x="855" y="131" text-anchor="middle" font-size="10" fill="#8b949e" font-weight="bold" letter-spacing="1">HARDWARE</text>

  <!-- PCA9685 -->
  <rect x="730" y="142" width="118" height="152" rx="6" fill="#2a1a0e" stroke="#f0883e" stroke-width="1.3"/>
  <text x="789" y="161" text-anchor="middle" font-size="10" fill="#f0883e" font-weight="bold">PCA9685</text>
  <text x="789" y="176" text-anchor="middle" font-size="8" fill="#d29922">SDA=1  SCL=2</text>
  <text x="789" y="193" text-anchor="middle" font-size="8" fill="#8b949e">500–2500 μs</text>
  <text x="789" y="207" text-anchor="middle" font-size="8" fill="#8b949e">16 channels</text>
  <line x1="737" y1="215" x2="841" y2="215" stroke="#30363d" stroke-width="1"/>
  <text x="789" y="229" text-anchor="middle" font-size="8" fill="#8b949e">Ch 0–5 active</text>

  <!-- 6 Servos -->
  <rect x="858" y="142" width="122" height="152" rx="6" fill="#1a1a2e" stroke="#58a6ff" stroke-width="1.3"/>
  <text x="919" y="161" text-anchor="middle" font-size="10" fill="#79c0ff" font-weight="bold">6× MG996R</text>
  <text x="919" y="176" text-anchor="middle" font-size="8" fill="#8b949e">Servo Chain</text>
  <line x1="865" y1="183" x2="973" y2="183" stroke="#30363d" stroke-width="1"/>
  <text x="919" y="198" text-anchor="middle" font-size="8" fill="#8b949e">L1 = 90 mm</text>
  <text x="919" y="212" text-anchor="middle" font-size="8" fill="#8b949e">L2 = 90 mm</text>
  <text x="919" y="226" text-anchor="middle" font-size="8" fill="#8b949e">L_END = 97 mm</text>
  <text x="919" y="240" text-anchor="middle" font-size="8" fill="#8b949e">H_BASE = 77 mm</text>
  <text x="919" y="260" text-anchor="middle" font-size="9" fill="#3fb950">6-DOF arm</text>

  <!-- Arrow PCA → Servos -->
  <line x1="849" y1="213" x2="857" y2="213" stroke="#ffb74d" stroke-width="1.8" marker-end="url(#arrowOrange)"/>

  <!-- ══════════════════════════════════════════════════════════ -->
  <!-- ARCH 2: LOCAL AP SERVER -->
  <!-- ══════════════════════════════════════════════════════════ -->
  <text x="20" y="360" font-size="12" font-weight="bold" fill="#81c784" letter-spacing="1">ARCH 2 — LOCAL AP SERVER</text>
  <text x="20" y="376" font-size="10" fill="#484f58">backend.ino · WiFi AP "robot" · 192.168.4.1 · self-contained</text>

  <rect x="14" y="383" width="992" height="218" rx="10" fill="#161b22" stroke="#21262d" stroke-width="1.5" filter="url(#shadow)"/>

  <!-- Clients -->
  <rect x="28" y="398" width="155" height="188" rx="8" fill="#1c2333" stroke="#30363d" stroke-width="1.2"/>
  <text x="106" y="419" text-anchor="middle" font-size="10" fill="#8b949e" font-weight="bold" letter-spacing="1">CLIENTS</text>

  <rect x="40" y="428" width="131" height="40" rx="6" fill="#0a2a1a" stroke="#238636" stroke-width="1.2"/>
  <text x="106" y="444" text-anchor="middle" font-size="10" fill="#56d364" font-weight="bold">Phone / Tablet</text>
  <text x="106" y="458" text-anchor="middle" font-size="9" fill="#3fb950">Mobile Browser</text>

  <rect x="40" y="475" width="131" height="40" rx="6" fill="#0a2a1a" stroke="#238636" stroke-width="1.2"/>
  <text x="106" y="491" text-anchor="middle" font-size="10" fill="#56d364" font-weight="bold">Laptop Browser</text>
  <text x="106" y="505" text-anchor="middle" font-size="9" fill="#3fb950">192.168.4.1</text>

  <!-- Arrow: clients → ESP32 AP -->
  <line x1="184" y1="495" x2="295" y2="495" stroke="#81c784" stroke-width="1.8" marker-end="url(#arrowGreen)"/>
  <text x="240" y="488" text-anchor="middle" font-size="8" fill="#8b949e">WiFi Direct</text>
  <text x="240" y="500" text-anchor="middle" font-size="8" fill="#8b949e">HTTP / WS</text>

  <!-- ESP32 AP -->
  <rect x="298" y="398" width="370" height="188" rx="8" fill="#1c2333" stroke="#30363d" stroke-width="1.2"/>
  <text x="483" y="419" text-anchor="middle" font-size="10" fill="#8b949e" font-weight="bold" letter-spacing="1">ESP32  (AP MODE)</text>
  <text x="483" y="434" text-anchor="middle" font-size="9" fill="#3fb950">SSID: "robot" · IP: 192.168.4.1</text>

  <rect x="312" y="443" width="165" height="26" rx="5" fill="#0f2a1a" stroke="#238636" stroke-width="1"/>
  <text x="395" y="460" text-anchor="middle" font-size="9" fill="#56d364">HTTP Server (port 80)</text>

  <rect x="312" y="475" width="165" height="26" rx="5" fill="#0f2a1a" stroke="#238636" stroke-width="1"/>
  <text x="395" y="492" text-anchor="middle" font-size="9" fill="#56d364">Embedded HTML/CSS/JS</text>

  <rect x="312" y="507" width="165" height="26" rx="5" fill="#0f2a1a" stroke="#238636" stroke-width="1"/>
  <text x="395" y="524" text-anchor="middle" font-size="9" fill="#56d364">WebSocket (LAN only)</text>

  <rect x="487" y="443" width="165" height="26" rx="5" fill="#0f2a1a" stroke="#238636" stroke-width="1"/>
  <text x="570" y="460" text-anchor="middle" font-size="9" fill="#56d364">Direct Joint Angles</text>

  <rect x="487" y="475" width="165" height="26" rx="5" fill="#0f2a1a" stroke="#238636" stroke-width="1"/>
  <text x="570" y="492" text-anchor="middle" font-size="9" fill="#56d364">No IK / No Relay</text>

  <rect x="487" y="507" width="165" height="26" rx="5" fill="#0f2a1a" stroke="#238636" stroke-width="1"/>
  <text x="570" y="524" text-anchor="middle" font-size="9" fill="#56d364">Self-Contained</text>

  <!-- Arrow: ESP32 AP → PCA9685 -->
  <line x1="669" y1="495" x2="718" y2="495" stroke="#ffb74d" stroke-width="1.8" marker-end="url(#arrowOrange)"/>
  <text x="693" y="488" text-anchor="middle" font-size="8" fill="#8b949e">I²C</text>

  <!-- PCA9685 (shared) -->
  <rect x="721" y="398" width="130" height="188" rx="8" fill="#2a1a0e" stroke="#f0883e" stroke-width="1.3"/>
  <text x="786" y="419" text-anchor="middle" font-size="10" fill="#f0883e" font-weight="bold">PCA9685</text>
  <text x="786" y="434" text-anchor="middle" font-size="8" fill="#d29922">SDA=1  SCL=2</text>
  <text x="786" y="450" text-anchor="middle" font-size="8" fill="#8b949e">500–2500 μs</text>
  <line x1="728" y1="458" x2="844" y2="458" stroke="#30363d" stroke-width="1"/>
  <text x="786" y="475" text-anchor="middle" font-size="10" fill="#79c0ff" font-weight="bold">6× MG996R</text>
  <text x="786" y="491" text-anchor="middle" font-size="8" fill="#8b949e">L1 = 90 mm</text>
  <text x="786" y="506" text-anchor="middle" font-size="8" fill="#8b949e">L2 = 90 mm</text>
  <text x="786" y="521" text-anchor="middle" font-size="8" fill="#8b949e">L_END = 97 mm</text>
  <text x="786" y="536" text-anchor="middle" font-size="8" fill="#8b949e">H_BASE = 77 mm</text>
  <text x="786" y="555" text-anchor="middle" font-size="9" fill="#3fb950">6-DOF arm</text>

  <!-- ── COMPARE PANEL ── -->
  <rect x="862" y="398" width="144" height="188" rx="8" fill="#1c2333" stroke="#30363d" stroke-width="1.2"/>
  <text x="934" y="418" text-anchor="middle" font-size="10" fill="#8b949e" font-weight="bold" letter-spacing="1">COMPARE</text>
  <line x1="870" y1="425" x2="998" y2="425" stroke="#30363d" stroke-width="1"/>

  <text x="874" y="441" font-size="8" fill="#8b949e">Access</text>
  <text x="874" y="454" font-size="8" fill="#7ec8e3">☁ Internet-wide</text>
  <text x="874" y="466" font-size="8" fill="#81c784">⚡ LAN only</text>

  <text x="874" y="482" font-size="8" fill="#8b949e">Kinematics</text>
  <text x="874" y="495" font-size="8" fill="#7ec8e3">☁ IK (Cartesian)</text>
  <text x="874" y="507" font-size="8" fill="#81c784">⚡ Joint angles</text>

  <text x="874" y="523" font-size="8" fill="#8b949e">Clients</text>
  <text x="874" y="536" font-size="8" fill="#7ec8e3">☁ Multi-client</text>
  <text x="874" y="548" font-size="8" fill="#81c784">⚡ Single WiFi</text>

  <text x="874" y="564" font-size="8" fill="#8b949e">Setup</text>
  <text x="874" y="576" font-size="8" fill="#7ec8e3">☁ Needs infra</text>

  <!-- Footer -->
  <line x1="14" y1="614" x2="1006" y2="614" stroke="#21262d" stroke-width="1"/>
  <text x="510" y="632" text-anchor="middle" font-size="9" fill="#484f58">Shared protocol: JSON messages · move · move_all · get_state · PCA9685 I²C · 6-DOF MG996R chain</text>
  <text x="510" y="648" text-anchor="middle" font-size="9" fill="#484f58">☁ = Cloud-Relay (esp32_cloud_client.ino)    ⚡ = Local AP (backend.ino)</text>
</svg>
